<svg height="100" viewBox="0 0 100 100" width="100" xmlns="http://www.w3.org/2000/svg"><circle cx="50" cy="51.25" fill="#9d5025" r="30.43"/><circle cx="50" cy="48.75" fill="#f58536" r="30.43"/><g fill="#fff"><path d="m24.42 39.87h11.05v17.76h-11.05z"/><path d="m59.73 27.74h9.86v9.86h-9.86z"/><path d="m59.73 43.82h9.86v9.86h-9.86z"/><path d="m59.73 59.91h9.86v9.86h-9.86z"/><path d="m57.01 50.05 1.64-.81 1.08-.53-1.08-.54-1.46-.72-4.4-2.17v2.17h-13.21l15.01-9.61 1.19 1.84 2.49-4.2.73-1.24.73-1.22-1.4.17-1.59.18-4.7.55 1.13 1.74-18.41 11.79-2.03 1.3 2.42 1.54 18.02 11.55-1.13 1.74 4.7.55 1.59.18 1.4.17-.73-1.22-.73-1.24-2.49-4.2-1.19 1.84-15.01-9.61h13.21v2.09z"/></g></svg>